# AST/ASF file generated using VICON BodyLanguage
# -----------------------------------------------
:version 1.10
:name VICON
:units
  mass 1.0
  length 0.45
  angle deg
:documentation
   .ast/.asf automatically generated from VICON data using
   VICON BodyBuilder and BodyLanguage model FoxedUp or BRILLIANT.MOD
:root
   order TX TY TZ RX RY RZ
   axis XYZ
   position 0 0 0  
   orientation 0 0 0 
:bonedata
  begin
     id 1 
     name lhipjoint
     direction 0.692814 -0.645514 0.321437 
     length 2.38754 
     axis 0 0 0  XYZ
  end
  begin
     id 2 
     name lfemur
     direction 0.34202 -0.939693 0  
     length 6.41921  
     axis 0 0 20  XYZ
    dof rx ry rz
    limits (-160.0 20.0)
           (-70.0 70.0)
           (-60.0 70.0)
  end
  begin
     id 3 
     name ltibia
     direction 0.34202 -0.939693 0   
     length 6.98247   
     axis 0 0 20   XYZ
    dof rx
    limits (-10.0 170.0)
  end
  begin
     id 4 
     name lfoot
     direction 0.0947186 -0.260237 0.960888   
     length 1.83034   
     axis -90 7.62852e-016 20   XYZ
    dof rx rz
    limits (-45.0 90.0)
           (-70.0 20.0)
  end
  begin
     id 5 
     name ltoes
     direction 1.53538e-011 -4.21952e-011 1   
     length 0.920499   
     axis -90 7.62852e-016 20   XYZ
    dof rx
    limits (-90.0 20.0)
  end
  begin
     id 6 
     name rhipjoint
     direction -0.631686 -0.693949 0.345555   
     length 2.2209  
     axis 0 0 0  XYZ 
  end
  begin
     id 7 
     name rfemur
     direction -0.34202 -0.939693 0   
     length 6.49542   
     axis 0 0 -20   XYZ
    dof rx ry rz
    limits (-160.0 20.0)
           (-70.0 70.0)
           (-70.0 60.0)
  end
  begin
     id 8 
     name rtibia
     direction -0.34202 -0.939693 0   
     length 7.21712   
     axis 0 0 -20   XYZ
    dof rx
    limits (-10.0 170.0)
 end
 begin
     id 9 
     name rfoot
     direction -0.0825378 -0.226771 0.970444   
     length 1.89724  
     axis -90 -7.62852e-016 -20   XYZ
    dof rx rz
    limits (-45.0 90.0)
           (-20.0 70.0)
  end
  begin
     id 10 
     name rtoes
     direction -1.53515e-011 -4.22016e-011 1   
     length 0.955868   
     axis -90 -7.62852e-016 -20   XYZ
    dof rx
    limits (-90.0 20.0)
  end
  begin
     id 11 
     name lowerback
     direction -0.0104711 0.984802 -0.173368   
     length 1.84931   
     axis 0 0 0   XYZ
    dof rx ry rz
    limits (-20.0 45.0)
           (-30.0 30.0)
           (-30.0 30.0)
  end
  begin
     id 12 
     name upperback
     direction -0.00286433 0.999996 -0.000382853   
     length 1.85768   
     axis 0 0 0   XYZ
    dof rx ry rz
    limits (-20.0 45.0)
           (-30.0 30.0)
           (-30.0 30.0)
  end
  begin
     id 13 
     name thorax
     direction 0.00167534 0.996793 0.0800069   
     length 1.92   
     axis 0 0 0   XYZ
    dof rx ry rz
    limits (-20.0 45.0)
           (-30.0 30.0)
           (-30.0 30.0)
  end
  begin
     id 14 
     name lowerneck
     direction -0.0672491 0.995415 0.068018   
     length 1.58923   
     axis 0 0 0   XYZ
    dof rx ry rz
    limits (-20.0 45.0)
           (-30.0 30.0)
           (-30.0 30.0)
  end
  begin
     id 15 
     name upperneck
     direction 0.0958019 0.982476 -0.159884   
     length 1.60189   
     axis 0 0 0   XYZ
    dof rx ry rz
    limits (-20.0 45.0)
           (-30.0 30.0)
           (-30.0 30.0)
  end
  begin
     id 16
     name head
     direction 0.032989 0.997338 -0.0650226  
     length 1.61681  
     axis 0 0 0   XYZ
    dof rx ry rz
    limits (-20.0 45.0)
           (-30.0 30.0)
           (-30.0 30.0)
  end
  begin
     id 17 
     name lclavicle
     direction 0.954279 0.298875 -0.00496069  
     length 2.99449  
     axis 0 0 0   XYZ
    dof ry rz
    limits (-20.0 10.0)
           (0.0 20.0)
  end
  begin
     id 18 
     name lhumerus
     direction 1 -4.48985e-011 -4.2057e-027   
     length 4.79185   
     axis 180 -30 -90   XYZ
    dof rx ry rz
    limits (-60.0 90.0)
           (-90.0 90.0)
           (-90.0 90.0)
  end
  begin
     id 19
     name lradius
     direction 1 -4.48945e-011 1.15441e-028   
     length 2.65553   
     axis 180 -30 -90   XYZ
    dof rx
    limits (-10.0 170.0)
  end
  begin
     id 20
     name lwrist
     direction 1 -4.4899e-011 4.8894e-028   
     length 1.32777   
     axis -2.56392e-016 90 90   XYZ
    dof ry
    limits (-180.0 0.0)
 end
  begin
     id 21 
     name lhand
     direction 1 -4.48908e-011 9.7788e-028   
     length 0.743904   
     axis -6.23971e-016 90 90   XYZ
    dof rx rz
    limits (-90.0 90.0)
           (-45.0 45.0)
  end
  begin
     id 22 
     name lfingers
     direction 1 -4.49068e-011 1.95576e-027   
     length 0.599754   
     axis -1.24794e-015 90 90   XYZ
    dof rx
    limits (0.0 90.0)
  end
  begin
     id 23
     name lthumb
     direction 0.707107 -6.34883e-011 0.707107   
     length 0.861131   
     axis -90 45 2.85299e-015   XYZ
    dof rx rz
    limits (-45.0 45.0)
           (-45.0 45.0)
  end
  begin
     id 24 
     name rclavicle
     direction -0.957921 0.286916 0.00811568   
     length 3.06817  
     axis 0 0 0   XYZ 
    dof ry rz
    limits (-10.0 20.0)
           (-20.0 0.0)
  end
  begin
     id 25 
     name rhumerus
     direction -1 -4.48971e-011 -3.07942e-027  
     length 4.77254   
     axis 180 30 90   XYZ
    dof rx ry rz
    limits (-90.0 60.0)
           (-90.0 90.0)
           (-90.0 90.0)
  end
  begin
     id 26 
     name rradius
     direction -1 -4.48957e-011 -9.6815e-028   
     length 2.75995   
     axis 180 30 90   XYZ
    dof rx
    limits (-10.0 170.0)
  end
  begin
     id 27 
     name rwrist
     direction -1 -4.48979e-011 4.8894e-028   
     length 1.37997   
     axis -2.56392e-016 -90 -90   XYZ
    dof ry
    limits (-180.0 0.0)
  end
  begin
     id 28
     name rhand
     direction -1 -4.48906e-011 9.7788e-028   
     length 0.701619   
     axis -6.23971e-016 -90 -90   XYZ
    dof rx rz
    limits (-90.0 90.0)
           (-45.0 45.0)
  end
  begin
     id 29
     name rfingers
     direction -1 -4.49018e-011 1.95576e-027   
     length 0.565663   
     axis -1.24794e-015 -90 -90   XYZ
    dof rx
    limits (0.0 90.0)
  end
  begin
     id 30
     name rthumb
     direction -0.707107 -6.34881e-011 0.707107   
     length 0.812183   
     axis -90 -45 -2.85299e-015   XYZ
    dof rx rz
    limits (-45.0 45.0)
           (-45.0 45.0)
  end
:hierarchy
  begin
    root lhipjoint rhipjoint lowerback
    lhipjoint lfemur
    lfemur ltibia
    ltibia lfoot
    lfoot ltoes
    rhipjoint rfemur
    rfemur rtibia
    rtibia rfoot
    rfoot rtoes
    lowerback upperback
    upperback thorax
    thorax lowerneck lclavicle rclavicle
    lowerneck upperneck
    upperneck head
    lclavicle lhumerus
    lhumerus lradius
    lradius lwrist
    lwrist lhand lthumb
    lhand lfingers
    rclavicle rhumerus
    rhumerus rradius
    rradius rwrist
    rwrist rhand rthumb
    rhand rfingers
  end

#!OML:ASF F:\VICON\USERDATA\INSTALL\rory3\rory3.ASF
:FULLY-SPECIFIED
:DEGREES
334
root 0.192988 14.9991 -2.65537 7.56092 4.12155 1.50606
lowerback 21.8448 0.28089 -0.679746
upperback 7.54379 0.278582 0.539622
thorax -3.981 0.135404 0.896016
lowerneck -13.0299 -9.30789 -12.2102
upperneck 27.3835 -12.7543 8.93374
head 12.6611 -5.87333 3.47187
rclavicle -1.98785e-014 2.78299e-015
rhumerus 23.6775 56.4181 -6.68212
rradius 76.8025
rwrist -20.0628
rhand -1.82804 16.4902
rfingers 7.12502
rthumb 23.8383 -12.0507
lclavicle -1.98785e-014 2.78299e-015
lhumerus -0.667087 -45.4736 25.8448
lradius 71.8943
lwrist 28.8234
lhand 3.82521 17.2676
lfingers 7.12502
lthumb 29.2488 44.9883
rfemur -40.1781 -3.76738 14.5857
rtibia 53.6869
rfoot -16.446 -8.27612
rtoes -14.1112
lfemur -39.6419 -0.9262 -18.4151
ltibia 48.6153
lfoot -11.6444 -1.11194
ltoes -13.3606
335
root 0.190105 14.9724 -2.65955 7.34545 4.13525 1.53611
lowerback 21.8839 0.309528 -0.682464
upperback 7.49278 0.315069 0.544737
thorax -4.05678 0.153686 0.893973
lowerneck -12.9391 -9.34973 -12.2563
upperneck 27.2219 -12.837 9.05176
head 12.601 -5.9058 3.51094
rclavicle -7.15625e-015 -9.14409e-015
rhumerus 24.3214 56.3976 -6.11927
rradius 76.4758
rwrist -20.4642
rhand -1.21953 16.4119
rfingers 7.12502
rthumb 24.4218 -12.0515
lclavicle -7.15625e-015 -9.14409e-015
lhumerus -0.101596 -45.8291 25.4166
lradius 71.5661
lwrist 29.0869
lhand 4.10164 17.4654
lfingers 7.12502
lthumb 29.5127 45.1398
rfemur -40.2564 -3.88287 14.5907
rtibia 54.1815
rfoot -16.5616 -8.34636
rtoes -14.5524
lfemur -39.6696 -0.841502 -18.4662
ltibia 49.0523
lfoot -11.8376 -1.22337
ltoes -13.3792
336
root 0.182036 14.9449 -2.66441 7.22646 3.97924 1.56232
lowerback 21.8499 0.394517 -0.840327
upperback 7.40054 0.39253 0.564915
thorax -4.14179 0.190468 0.986415
lowerneck -12.9358 -9.34521 -12.2041
upperneck 27.1153 -12.8342 9.04169
head 12.5515 -5.90234 3.49758
rclavicle -1.17283e-014 -1.59028e-015
rhumerus 25.107 56.4172 -5.48398
rradius 76.0707
rwrist -20.7016
rhand -0.764564 16.5223
rfingers 7.12502
rthumb 24.8579 -11.8816
lclavicle -1.17283e-014 -1.59028e-015
lhumerus 0.2922 -46.1038 25.1152
lradius 71.1739
lwrist 29.3518
lhand 4.47476 17.6713
lfingers 7.12502
lthumb 29.8689 45.2823
rfemur -40.4282 -3.75051 14.5694
rtibia 54.6469
rfoot -16.742 -8.33027
rtoes -14.7204
lfemur -39.8094 -0.59977 -18.4982
ltibia 49.5262
lfoot -12.0179 -1.34887
ltoes -12.978
337
root 0.176372 14.9173 -2.66759 7.05935 3.83452 1.6187
lowerback 21.8201 0.447619 -0.99053
upperback 7.35604 0.429854 0.570888
thorax -4.17645 0.207663 1.06924
lowerneck -12.8777 -9.3274 -12.2024
upperneck 26.8332 -12.8035 9.07766
head 12.4245 -5.89017 3.51462
rclavicle 6.36111e-015 -7.55382e-015
rhumerus 26.0082 56.3825 -4.79875
rradius 75.674
rwrist -20.909
rhand -0.638364 16.5599
rfingers 7.12502
rthumb 24.9788 -11.8273
lclavicle 6.36111e-015 -7.55382e-015
lhumerus 0.72812 -46.3323 24.7938
lradius 70.7267
lwrist 29.6083
lhand 4.79694 17.835
lfingers 7.12502
lthumb 30.1763 45.3902
rfemur -40.517 -3.69296 14.5189
rtibia 55.091
rfoot -16.9292 -8.27413
rtoes -15.126
lfemur -39.8956 -0.39878 -18.5718
ltibia 50.0276
lfoot -12.2499 -1.42827
ltoes -12.834
338
root 0.173351 14.8917 -2.66774 6.82964 3.80349 1.53648
lowerback 21.7885 0.462493 -0.930419
upperback 7.34388 0.464218 0.618473
thorax -4.17452 0.224323 1.07752
lowerneck -12.9446 -9.35908 -12.3839
upperneck 26.6616 -12.8469 9.28546
head 12.4069 -5.90357 3.61024
rclavicle 1.15295e-014 -7.15625e-015
rhumerus 26.7536 56.3024 -4.16866
rradius 75.3298
rwrist -21.1421
rhand -0.345403 16.6012
rfingers 7.12502
rthumb 25.2595 -11.7467
lclavicle 1.15295e-014 -7.15625e-015
lhumerus 1.23737 -46.4852 24.4757
lradius 70.33
lwrist 29.8182
lhand 5.17882 18.0545
lfingers 7.12502
lthumb 30.5405 45.5426
rfemur -40.5184 -3.72417 14.625
rtibia 55.5152
rfoot -17.1156 -8.2363
rtoes -15.2221
lfemur -39.9279 -0.256648 -18.4913
ltibia 50.5304
lfoot -12.4824 -1.5482
ltoes -13.0122
339
root 0.170436 14.867 -2.66637 6.56833 3.798 1.49683
lowerback 21.7728 0.496831 -0.878359
upperback 7.33452 0.520586 0.640175
thorax -4.17801 0.252061 1.05718
lowerneck -13.0169 -9.41565 -12.4455
upperneck 26.4967 -12.9424 9.44994
head 12.3871 -5.93279 3.66037
rclavicle -9.54166e-015 -5.56597e-015
rhumerus 27.239 56.2177 -3.76697
rradius 75.0066
rwrist -21.4057
rhand 0.0437963 16.5463
rfingers 7.12502
rthumb 25.6323 -11.7484
lclavicle -9.54166e-015 -5.56597e-015
lhumerus 1.84368 -46.648 24.0864
lradius 69.9872
lwrist 30.0193
lhand 5.52333 18.3354
lfingers 7.12502
lthumb 30.869 45.7617
rfemur -40.4691 -3.75647 14.6745
rtibia 55.9389
rfoot -17.3127 -8.1789
rtoes -15.1984
lfemur -39.8963 -0.141438 -18.4591
ltibia 51.0042
lfoot -12.7292 -1.65068
ltoes -12.9664
340
root 0.168108 14.8438 -2.6632 6.32011 3.82845 1.48046
lowerback 21.7106 0.497502 -0.830259
upperback 7.30647 0.532369 0.648969
thorax -4.17682 0.258226 1.03639
lowerneck -12.9594 -9.44935 -12.4088
upperneck 26.2346 -13.002 9.5073
head 12.2804 -5.95455 3.66367
rclavicle 1.59028e-014 -3.18055e-015
rhumerus 27.7661 56.1654 -3.37801
rradius 74.6253
rwrist -21.6238
rhand 0.363337 16.3541
rfingers 7.12502
rthumb 25.9383 -11.8962
lclavicle 1.59028e-014 -3.18055e-015
lhumerus 2.3817 -46.8975 23.7135
lradius 69.5708
lwrist 30.148
lhand 5.91485 18.6857
lfingers 7.12502
lthumb 31.2422 46.0407
rfemur -40.4023 -3.85791 14.7108
rtibia 56.3524
rfoot -17.4852 -8.168
rtoes -15.3892
lfemur -39.8608 -0.0644022 -18.4543
ltibia 51.4531
lfoot -12.9622 -1.78587
ltoes -12.9388
341
root 0.166965 14.8191 -2.65736 6.12918 3.88338 1.60883
lowerback 21.5605 0.480492 -0.929647
upperback 7.25558 0.490367 0.631246
thorax -4.15497 0.237482 1.08474
lowerneck -12.9052 -9.47537 -12.5421
upperneck 26.016 -13.0496 9.689
head 12.2149 -5.97314 3.74442
rclavicle 0 7.95139e-015
rhumerus 28.5224 56.121 -2.87991
rradius 74.118
rwrist -21.7605
rhand 0.829782 16.2857
rfingers 7.12502
rthumb 26.3849 -11.8984
lclavicle 0 7.95139e-015
lhumerus 2.82723 -47.1922 23.4013
lradius 69.1171
lwrist 30.351
lhand 6.49065 19.1736
lfingers 7.12502
lthumb 31.7907 46.4212
rfemur -40.3883 -4.03647 14.5927
rtibia 56.756
rfoot -17.6217 -8.14995
rtoes -15.819
lfemur -39.8552 -0.0384895 -18.6154
ltibia 51.8562
lfoot -13.1133 -1.87526
ltoes -13.1301
342
root 0.166549 14.7952 -2.64819 5.90415 3.93017 1.66141
lowerback 21.3748 0.461038 -0.917006
upperback 7.23051 0.467584 0.600536
thorax -4.08672 0.226592 1.05066
lowerneck -12.9374 -9.5117 -12.6133
upperneck 25.8331 -13.109 9.83089
head 12.1747 -5.99205 3.79483
rclavicle -3.18055e-015 4.77083e-015
rhumerus 29.1096 56.0398 -2.56294
rradius 73.5777
rwrist -21.7969
rhand 1.14084 16.2799
rfingers 7.12502
rthumb 26.6826 -11.8593
lclavicle -3.18055e-015 4.77083e-015
lhumerus 3.53623 -47.4785 22.9149
lradius 68.5401
lwrist 30.576
lhand 7.11977 19.5212
lfingers 7.12502
lthumb 32.3897 46.6482
rfemur -40.303 -4.17223 14.551
rtibia 57.122
rfoot -17.7664 -8.17906
rtoes -16.226
lfemur -39.7816 -0.0238063 -18.681
ltibia 52.2415
lfoot -13.2681 -1.96026
ltoes -12.9674
